<svg xmlns="http://www.w3.org/2000/svg" viewBox="0 0 543.62 495.78">
  <defs>
    <style>.logo--secondary{fill:#fff;}</style>
  </defs>
  <g id="logo-square">
    <g id="logo-text">
      <polygon class="logo--secondary" points="460.04 8.45 520.04 8.45 340.04 478.45 280.04 478.45 460.04 8.45"/>
      <path class="logo--secondary" d="M111.67,45.74V176.92l51.3.7L177.87,217l-66.2.86V377.28c0,36.65,10.38,57.42,40.32,57.42,5,0,9.56-.24,13.65-.62L329.23,8.7l60.12-.12-180,469.85-45.39,0s-22.3.29-26,.29c-25,0-45.21-7.94-58-22.6-15.28-15.88-20.77-42.15-20.77-77V217.84H13.32V176.92H59.14L57.87,45.74Z"/>
    </g>
  </g>
</svg>
